{
DisplayStrings = (
"`"
);
date = "2013-05-07 17:01:52 +0000";
designer = "Shinji Pons";
designerURL = www.shinjipons.com;
familyName = "Modulo 32";
fontMaster = (
{
alignmentZones = (
"{128, 129}",
"{128, 129}",
"{128, 129}",
"{0, -2}",
"{0, -2}"
);
ascender = 128;
capHeight = 128;
customParameters = (
{
name = familyName;
value = "Modulo 32";
}
);
descender = 0;
guideLines = (
{
position = "{-25, 48}";
},
{
angle = 90;
position = "{88, 139}";
},
{
angle = 90;
position = "{56, 142}";
},
{
position = "{-18, 80}";
},
{
angle = 90;
position = "{40, 143}";
},
{
angle = 90;
position = "{104, 143}";
},
{
position = "{-22, 96}";
},
{
position = "{-20, 32}";
},
{
angle = 90;
position = "{136, -22}";
},
{
angle = 90;
position = "{8, -30}";
}
);
horizontalStems = (
32
);
id = "940E2F63-624A-4C3D-A909-721782B4CF41";
verticalStems = (
32
);
weightValue = 22;
widthValue = 128;
xHeight = 128;
}
);
glyphs = (
{
glyphname = A;
lastChange = "2013-06-02 23:52:52 +0100";
layers = (
{
guideLines = (
{
position = "{-9, 59}";
showMeasurement = 1;
},
{
angle = 90;
position = "{73, -10}";
showMeasurement = 1;
}
);
layerId = "940E2F63-624A-4C3D-A909-721782B4CF41";
name = Regular;
paths = (
{
closed = 1;
nodes = (
"104 128 LINE",
"136 96 LINE",
"136 32 LINE",
"104 0 LINE",
"40 0 LINE",
"8 32.0073 LINE",
"8 48 LINE",
"40 80 LINE",
"56 80 LINE",
"88 48 LINE",
"40 48 LINE",
"40 32 LINE",
"104 32 LINE",
"104 96 LINE",
"8 96 LINE",
"40 128 LINE"
);
}
);
width = 144;
}
);
unicode = 0041;
},
{
glyphname = B;
lastChange = "2013-06-02 23:54:04 +0100";
layers = (
{
layerId = "940E2F63-624A-4C3D-A909-721782B4CF41";
name = Regular;
paths = (
{
closed = 1;
nodes = (
"104 128 LINE",
"40 128 LINE",
"8 96 LINE",
"8 32 LINE",
"40 0 LINE",
"40 96 LINE",
"104 96 LINE",
"104 80 LINE",
"56 80 LINE",
"88 48 LINE",
"104 48 LINE",
"104 32 LINE",
"56 32 LINE",
"88 0 LINE",
"104 0 LINE",
"136 32 LINE",
"136 96 LINE"
);
}
);
width = 144;
}
);
unicode = 0042;
},
{
glyphname = C;
lastChange = "2013-06-03 00:01:23 +0100";
layers = (
{
layerId = "940E2F63-624A-4C3D-A909-721782B4CF41";
name = Regular;
paths = (
{
closed = 1;
nodes = (
"40 0 LINE",
"8 32 LINE",
"8 96 LINE",
"40 128 LINE",
"104 128 LINE",
"136 96 LINE",
"40 96 LINE",
"40 32 LINE",
"136 32 LINE",
"104 0 LINE"
);
}
);
width = 144;
}
);
unicode = 0043;
},
{
glyphname = D;
lastChange = "2013-06-03 00:05:03 +0100";
layers = (
{
layerId = "940E2F63-624A-4C3D-A909-721782B4CF41";
name = Regular;
paths = (
{
closed = 1;
nodes = (
"136 32 LINE",
"136 96 LINE",
"104 128 LINE",
"40 128 LINE",
"8 96 LINE",
"104 96 LINE",
"104 32 LINE",
"40 32 LINE",
"40 80 LINE",
"8 48 LINE",
"8 32 LINE",
"40 0 LINE",
"104 0 LINE"
);
}
);
width = 144;
}
);
unicode = 0044;
},
{
glyphname = E;
lastChange = "2013-06-03 00:06:12 +0100";
layers = (
{
layerId = "940E2F63-624A-4C3D-A909-721782B4CF41";
name = Regular;
paths = (
{
closed = 1;
nodes = (
"104 48 LINE",
"136 80 LINE",
"136 96 LINE",
"104 128 LINE",
"88 128 LINE",
"56 96 LINE",
"104 96 LINE",
"104 80 LINE",
"40 80 LINE",
"40 128 LINE",
"8 96 LINE",
"8 32 LINE",
"40 0 LINE",
"104 0 LINE",
"136 32 LINE",
"40 32 LINE",
"40 48 LINE"
);
}
);
width = 144;
}
);
unicode = 0045;
},
{
glyphname = F;
lastChange = "2013-06-03 00:06:44 +0100";
layers = (
{
layerId = "940E2F63-624A-4C3D-A909-721782B4CF41";
name = Regular;
paths = (
{
closed = 1;
nodes = (
"40 0 LINE",
"40 48 LINE",
"136 48 LINE",
"104 80 LINE",
"40 80 LINE",
"40 96 LINE",
"136 96 LINE",
"104 128 LINE",
"40 128 LINE",
"8 96 LINE",
"8 32 LINE"
);
}
);
width = 144;
}
);
unicode = 0046;
},
{
glyphname = H;
lastChange = "2013-06-03 00:03:49 +0100";
layers = (
{
layerId = "940E2F63-624A-4C3D-A909-721782B4CF41";
name = Regular;
paths = (
{
closed = 1;
nodes = (
"104 128 LINE",
"104 80 LINE",
"40 80 LINE",
"40 128 LINE",
"8 96 LINE",
"8 32 LINE",
"40 0 LINE",
"40 48 LINE",
"104 48 LINE",
"104 0 LINE",
"136 32 LINE",
"136 96 LINE"
);
}
);
width = 144;
}
);
unicode = 0048;
},
{
glyphname = J;
lastChange = "2013-06-03 00:07:13 +0100";
layers = (
{
layerId = "940E2F63-624A-4C3D-A909-721782B4CF41";
name = Regular;
paths = (
{
closed = 1;
nodes = (
"104 128 LINE",
"88 128 LINE",
"56 96 LINE",
"104 96 LINE",
"104 32 LINE",
"8 32 LINE",
"40 0 LINE",
"104 0 LINE",
"136 32 LINE",
"136 96 LINE"
);
}
);
width = 144;
}
);
unicode = 004A;
},
{
glyphname = K;
lastChange = "2013-06-03 00:07:50 +0100";
layers = (
{
layerId = "940E2F63-624A-4C3D-A909-721782B4CF41";
name = Regular;
paths = (
{
closed = 1;
nodes = (
"136 96 LINE",
"104 128 LINE",
"88 128 LINE",
"56 96 LINE",
"56 80 LINE",
"40 80 LINE",
"40 128 LINE",
"8 96 LINE",
"8 32 LINE",
"40 0 LINE",
"40 48 LINE",
"104 48 LINE",
"104 0 LINE",
"136 32 LINE",
"136 48 LINE",
"104 80 LINE",
"88 80 LINE",
"88 96 LINE"
);
}
);
width = 144;
}
);
unicode = 004B;
},
{
glyphname = L;
lastChange = "2013-06-03 00:08:18 +0100";
layers = (
{
layerId = "940E2F63-624A-4C3D-A909-721782B4CF41";
name = Regular;
paths = (
{
closed = 1;
nodes = (
"104 0 LINE",
"136 32 LINE",
"40 32 LINE",
"40 128 LINE",
"8 96 LINE",
"8 32 LINE",
"40 0 LINE"
);
}
);
width = 144;
}
);
unicode = 004C;
},
{
glyphname = M;
lastChange = "2013-06-03 00:03:24 +0100";
layers = (
{
layerId = "940E2F63-624A-4C3D-A909-721782B4CF41";
name = Regular;
paths = (
{
closed = 1;
nodes = (
"104 128 LINE",
"40 128 LINE",
"8 96 LINE",
"8 32 LINE",
"40 0 LINE",
"40 96 LINE",
"56 96 LINE",
"56 32 LINE",
"88 0 LINE",
"88 96 LINE",
"104 96 LINE",
"104 0 LINE",
"136 32 LINE",
"136 96 LINE"
);
}
);
width = 144;
}
);
unicode = 004D;
},
{
glyphname = N;
lastChange = "2013-06-03 00:02:25 +0100";
layers = (
{
layerId = "940E2F63-624A-4C3D-A909-721782B4CF41";
name = Regular;
paths = (
{
closed = 1;
nodes = (
"104 128 LINE",
"104 32 LINE",
"88 32 LINE",
"88 96 LINE",
"56 128 LINE",
"40 128 LINE",
"8 96 LINE",
"8 32 LINE",
"40 0 LINE",
"40 96 LINE",
"56 96 LINE",
"56 32 LINE",
"88 0 LINE",
"104 0 LINE",
"136 32 LINE",
"136 96 LINE"
);
}
);
width = 144;
}
);
unicode = 004E;
},
{
glyphname = O;
lastChange = "2013-06-03 00:08:51 +0100";
layers = (
{
layerId = "940E2F63-624A-4C3D-A909-721782B4CF41";
name = Regular;
paths = (
{
closed = 1;
nodes = (
"104 128 LINE",
"40 128 LINE",
"8 96 LINE",
"8 32 LINE",
"40 0 LINE",
"104 0 LINE",
"136 32 LINE",
"136 96 LINE"
);
},
{
closed = 1;
nodes = (
"104 32 LINE",
"40 32 LINE",
"40 96 LINE",
"104 96 LINE"
);
}
);
width = 144;
}
);
unicode = 004F;
},
{
glyphname = P;
lastChange = "2013-06-03 00:09:27 +0100";
layers = (
{
layerId = "940E2F63-624A-4C3D-A909-721782B4CF41";
name = Regular;
paths = (
{
closed = 1;
nodes = (
"8 32 LINE",
"8 96 LINE",
"40 128 LINE",
"104 128 LINE",
"136 96 LINE",
"136 80 LINE",
"104 48 LINE",
"88 48 LINE",
"56 80 LINE",
"104 80 LINE",
"104 96 LINE",
"40 96 LINE",
"40 0 LINE"
);
}
);
width = 144;
}
);
unicode = 0050;
},
{
glyphname = Q;
lastChange = "2013-06-03 00:10:38 +0100";
layers = (
{
layerId = "940E2F63-624A-4C3D-A909-721782B4CF41";
name = Regular;
paths = (
{
closed = 1;
nodes = (
"104 128 LINE",
"40 128 LINE",
"8 96 LINE",
"8 32 LINE",
"40 0 LINE",
"104 0 LINE",
"136 32 LINE",
"136 96 LINE"
);
},
{
closed = 1;
nodes = (
"104 32 LINE",
"88 32 LINE",
"88 80 LINE",
"56 48 LINE",
"56 32 LINE",
"40 32 LINE",
"40 96 LINE",
"104 96 LINE"
);
}
);
width = 144;
}
);
unicode = 0051;
},
{
glyphname = R;
lastChange = "2013-06-03 00:13:13 +0100";
layers = (
{
layerId = "940E2F63-624A-4C3D-A909-721782B4CF41";
name = Regular;
paths = (
{
closed = 1;
nodes = (
"104 48 LINE",
"136 80 LINE",
"136 96 LINE",
"104 128 LINE",
"40 128 LINE",
"8 96 LINE",
"8 32 LINE",
"40 0 LINE",
"40 96 LINE",
"104 96 LINE",
"104 80 LINE",
"88 80 LINE",
"56 48 LINE",
"56 32 LINE",
"88 0 LINE",
"104 0 LINE",
"136 32 LINE",
"88 32 LINE",
"88 48 LINE"
);
}
);
width = 144;
}
);
unicode = 0052;
},
{
glyphname = T;
lastChange = "2013-06-03 00:04:21 +0100";
layers = (
{
layerId = "940E2F63-624A-4C3D-A909-721782B4CF41";
name = Regular;
paths = (
{
closed = 1;
nodes = (
"40 128 LINE",
"8 96 LINE",
"56 96 LINE",
"56 32 LINE",
"88 0 LINE",
"88 96 LINE",
"136 96 LINE",
"104 128 LINE"
);
}
);
width = 144;
}
);
unicode = 0054;
},
{
glyphname = V;
lastChange = "2013-06-03 00:14:05 +0100";
layers = (
{
layerId = "940E2F63-624A-4C3D-A909-721782B4CF41";
name = Regular;
paths = (
{
closed = 1;
nodes = (
"8 32 LINE",
"40 0 LINE",
"56 0 LINE",
"88 32 LINE",
"88 48 LINE",
"104 48 LINE",
"136 80 LINE",
"136 96 LINE",
"104 128 LINE",
"104 80 LINE",
"88 80 LINE",
"56 48 LINE",
"56 32 LINE",
"40 32 LINE",
"40 128 LINE",
"8 96 LINE"
);
}
);
width = 144;
}
);
unicode = 0056;
},
{
glyphname = X;
lastChange = "2013-06-03 00:14:46 +0100";
layers = (
{
layerId = "940E2F63-624A-4C3D-A909-721782B4CF41";
name = Regular;
paths = (
{
closed = 1;
nodes = (
"136 96 LINE",
"104 128 LINE",
"40 128 LINE",
"8 96 LINE",
"8 80 LINE",
"40 48 LINE",
"40 96 LINE",
"56 96 LINE",
"56 32 LINE",
"8 32 LINE",
"40 0 LINE",
"104 0 LINE",
"136 32 LINE",
"136 48 LINE",
"104 80 LINE",
"104 32 LINE",
"88 32 LINE",
"88 96 LINE"
);
}
);
width = 144;
}
);
unicode = 0058;
},
{
glyphname = Y;
lastChange = "2013-06-03 00:15:30 +0100";
layers = (
{
layerId = "940E2F63-624A-4C3D-A909-721782B4CF41";
name = Regular;
paths = (
{
closed = 1;
nodes = (
"104 128 LINE",
"104 80 LINE",
"40 80 LINE",
"40 128 LINE",
"8 96 LINE",
"8 80 LINE",
"40 48 LINE",
"104 48 LINE",
"104 32 LINE",
"8 32 LINE",
"40 0 LINE",
"104 0 LINE",
"136 32 LINE",
"136 96 LINE"
);
}
);
width = 144;
}
);
unicode = 0059;
},
{
glyphname = zero;
lastChange = "2013-06-03 00:16:16 +0100";
layers = (
{
components = (
{
name = O;
transform = "{1, 0, 0, 1, 0, 0}";
}
);
layerId = "940E2F63-624A-4C3D-A909-721782B4CF41";
name = Regular;
paths = (
{
closed = 1;
nodes = (
"56 48 LINE",
"88 80 LINE",
"56 80 LINE"
);
}
);
width = 144;
}
);
unicode = 0030;
},
{
glyphname = one;
lastChange = "2013-06-02 18:34:05 +0100";
layers = (
{
layerId = "940E2F63-624A-4C3D-A909-721782B4CF41";
name = Regular;
paths = (
{
closed = 1;
nodes = (
"88 32 LINE",
"88 96 LINE",
"56 128 LINE",
"40 128 LINE",
"8 96 LINE",
"56 96 LINE",
"56 32 LINE",
"8 32 LINE",
"40 0 LINE",
"104 0 LINE",
"136 32 LINE"
);
}
);
width = 144;
}
);
unicode = 0031;
},
{
glyphname = four;
lastChange = "2013-06-02 20:24:14 +0100";
layers = (
{
layerId = "940E2F63-624A-4C3D-A909-721782B4CF41";
name = Regular;
paths = (
{
closed = 1;
nodes = (
"104 128 LINE",
"104 80 LINE",
"40 80 LINE",
"40 128 LINE",
"8 96 LINE",
"8 80 LINE",
"40 48 LINE",
"104 48 LINE",
"104 0 LINE",
"136 32 LINE",
"136 96 LINE"
);
}
);
width = 144;
}
);
unicode = 0034;
},
{
glyphname = seven;
lastChange = "2013-06-02 20:24:54 +0100";
layers = (
{
layerId = "940E2F63-624A-4C3D-A909-721782B4CF41";
name = Regular;
paths = (
{
closed = 1;
nodes = (
"104 128 LINE",
"40 128 LINE",
"8 96 LINE",
"104 96 LINE",
"104 80 LINE",
"88.0071 80 LINE",
"56 48 LINE",
"56 32 LINE",
"88 0 LINE",
"88 48 LINE",
"104 48 LINE",
"136 80 LINE",
"136 96 LINE"
);
}
);
width = 144;
}
);
unicode = 0037;
},
{
glyphname = eight;
lastChange = "2013-06-02 20:25:27 +0100";
layers = (
{
layerId = "940E2F63-624A-4C3D-A909-721782B4CF41";
name = Regular;
paths = (
{
closed = 1;
nodes = (
"104 128 LINE",
"40 128 LINE",
"8 96 LINE",
"8 32 LINE",
"40 0 LINE",
"104 0 LINE",
"136 32 LINE",
"136 96 LINE"
);
},
{
closed = 1;
nodes = (
"104 80 LINE",
"40 80 LINE",
"40 96 LINE",
"104 96 LINE"
);
},
{
closed = 1;
nodes = (
"104 32 LINE",
"40 32 LINE",
"40 48 LINE",
"104 48 LINE"
);
}
);
width = 144;
}
);
unicode = 0038;
},
{
glyphname = asterisk;
lastChange = "2013-06-02 20:25:48 +0100";
layers = (
{
components = (
{
name = plus;
transform = "{1, 0, 0, 1, 0, 0}";
}
);
layerId = "940E2F63-624A-4C3D-A909-721782B4CF41";
name = Regular;
paths = (
{
closed = 1;
nodes = (
"40 128 LINE",
"8 96 LINE",
"40 96 LINE"
);
},
{
closed = 1;
nodes = (
"104 128 LINE",
"104 96 LINE",
"136 96 LINE"
);
},
{
closed = 1;
nodes = (
"40 0 LINE",
"40 32 LINE",
"8 32 LINE"
);
},
{
closed = 1;
nodes = (
"104 0 LINE",
"136 32 LINE",
"104 32 LINE"
);
}
);
width = 144;
}
);
unicode = 002A;
},
{
glyphname = backslash;
lastChange = "2013-06-02 20:26:29 +0100";
layers = (
{
layerId = "940E2F63-624A-4C3D-A909-721782B4CF41";
name = Regular;
paths = (
{
closed = 1;
nodes = (
"8 32 LINE",
"40 0 LINE",
"40 128 LINE",
"8 96 LINE"
);
},
{
closed = 1;
nodes = (
"56 32 LINE",
"88 0 LINE",
"88 96 LINE",
"56 128 LINE"
);
},
{
closed = 1;
nodes = (
"104 0 LINE",
"136 32 LINE",
"136 96 LINE",
"104 128 LINE"
);
}
);
width = 144;
}
);
unicode = 005C;
},
{
glyphname = comma;
lastChange = "2013-06-02 20:27:43 +0100";
layers = (
{
layerId = "940E2F63-624A-4C3D-A909-721782B4CF41";
name = Regular;
paths = (
{
closed = 1;
nodes = (
"8 32 LINE",
"40 0 LINE",
"104 0 LINE",
"136 32 LINE",
"136 96 LINE",
"104 128 LINE",
"40 128 LINE",
"8 96 LINE"
);
}
);
width = 144;
}
);
unicode = 002C;
},
{
glyphname = ellipsis;
lastChange = "2013-06-02 16:35:52 +0100";
layers = (
{
layerId = "940E2F63-624A-4C3D-A909-721782B4CF41";
name = Regular;
paths = (
{
closed = 1;
nodes = (
"40 32 LINE",
"8 32 LINE",
"40 0 LINE"
);
},
{
closed = 1;
nodes = (
"40 128 LINE",
"8 96 LINE",
"136 96 LINE",
"104 128 LINE"
);
},
{
closed = 1;
nodes = (
"40 80 LINE",
"8 48 LINE",
"104 48 LINE",
"136 80 LINE"
);
},
{
closed = 1;
nodes = (
"88 32 LINE",
"56 32 LINE",
"88 0 LINE"
);
},
{
closed = 1;
nodes = (
"136 32 LINE",
"104 32 LINE",
"104 0 LINE"
);
}
);
width = 144;
}
);
unicode = 2026;
},
{
glyphname = exclam;
lastChange = "2013-06-30 02:34:30 +0100";
layers = (
{
layerId = "940E2F63-624A-4C3D-A909-721782B4CF41";
name = Regular;
paths = (
{
closed = 1;
nodes = (
"136 96 LINE",
"104 128 LINE",
"104 48 LINE",
"136 80 LINE"
);
},
{
closed = 1;
nodes = (
"88 96 LINE",
"56 128 LINE",
"56 80 LINE",
"88 48 LINE"
);
},
{
closed = 1;
nodes = (
"40 128 LINE",
"8 96 LINE",
"8 80 LINE",
"40 48 LINE"
);
},
{
closed = 1;
nodes = (
"40 32 LINE",
"8 32 LINE",
"40 0 LINE"
);
},
{
closed = 1;
nodes = (
"136 32 LINE",
"104 32 LINE",
"104 0 LINE"
);
},
{
closed = 1;
nodes = (
"88 32 LINE",
"56 32 LINE",
"88 0 LINE"
);
}
);
width = 144;
}
);
unicode = 0021;
},
{
glyphname = numbersign;
lastChange = "2013-06-02 16:36:54 +0100";
layers = (
{
layerId = "940E2F63-624A-4C3D-A909-721782B4CF41";
name = Regular;
paths = (
{
closed = 1;
nodes = (
"104 128 LINE",
"40 128 LINE",
"8 96 LINE",
"8 32 LINE",
"40 0 LINE",
"104 0 LINE",
"136 32 LINE",
"136 96 LINE"
);
},
{
closed = 1;
nodes = (
"40 96 LINE",
"56 96 LINE",
"56 80 LINE",
"40 80 LINE"
);
},
{
closed = 1;
nodes = (
"104 80 LINE",
"88 80 LINE",
"88 96 LINE",
"104 96 LINE"
);
},
{
closed = 1;
nodes = (
"40 32 LINE",
"40 48 LINE",
"56 48 LINE",
"56 32 LINE"
);
},
{
closed = 1;
nodes = (
"104 32 LINE",
"88 32 LINE",
"88 48 LINE",
"104 48 LINE"
);
}
);
width = 144;
}
);
unicode = 0023;
},
{
glyphname = question;
lastChange = "2013-06-02 16:37:27 +0100";
layers = (
{
layerId = "940E2F63-624A-4C3D-A909-721782B4CF41";
name = Regular;
paths = (
{
closed = 1;
nodes = (
"104 128 LINE",
"40 128 LINE",
"8 96 LINE",
"104 96 LINE",
"104 80 LINE",
"88 80 LINE",
"56 48 LINE",
"104 48 LINE",
"136 80 LINE",
"136 96 LINE"
);
},
{
closed = 1;
nodes = (
"88 32 LINE",
"56 32 LINE",
"88 0 LINE"
);
}
);
width = 144;
}
);
unicode = 003F;
},
{
glyphname = braceleft;
lastChange = "2013-06-02 16:46:13 +0100";
layers = (
{
layerId = "940E2F63-624A-4C3D-A909-721782B4CF41";
name = Regular;
paths = (
{
closed = 1;
nodes = (
"136 96 LINE",
"104 128 LINE",
"88 128 LINE",
"56 96 LINE",
"56 80 LINE",
"40 80 LINE",
"8 48 LINE",
"56 48 LINE",
"56 32 LINE",
"88 0 LINE",
"104 0 LINE",
"136 32 LINE",
"88 32 LINE",
"88 96 LINE"
);
}
);
width = 144;
}
);
unicode = 007B;
},
{
glyphname = braceright;
lastChange = "2013-06-02 16:49:50 +0100";
layers = (
{
layerId = "940E2F63-624A-4C3D-A909-721782B4CF41";
name = Regular;
paths = (
{
closed = 1;
nodes = (
"56 32 LINE",
"8 32 LINE",
"40 0 LINE",
"56 0 LINE",
"88 32 LINE",
"88 48 LINE",
"104 48 LINE",
"136 80 LINE",
"88 80 LINE",
"88 96 LINE",
"56 128 LINE",
"40 128 LINE",
"8 96 LINE",
"56 96 LINE"
);
}
);
width = 144;
}
);
unicode = 007D;
},
{
color = 0;
glyphname = dollar;
lastChange = "2013-11-30 12:17:59 +0000";
layers = (
{
components = (
{
name = S;
transform = "{1, 0, 0, 1, 0, 0}";
}
);
layerId = "940E2F63-624A-4C3D-A909-721782B4CF41";
name = Regular;
paths = (
{
closed = 1;
nodes = (
"56 17 LINE",
"88 17 LINE",
"88 98 LINE",
"56 98 LINE"
);
}
);
width = 144;
}
);
unicode = 0024;
},
{
color = 0;
glyphname = euro;
lastChange = "2013-11-30 12:18:20 +0000";
layers = (
{
components = (
{
name = braceleft;
transform = "{1, 0, 0, 1, 0, 0}";
}
);
layerId = "940E2F63-624A-4C3D-A909-721782B4CF41";
name = Regular;
paths = (
{
closed = 1;
nodes = (
"70 48 LINE",
"104 48 LINE",
"136 80 LINE",
"70 80 LINE"
);
}
);
width = 144;
}
);
unicode = 20AC;
},
{
glyphname = divide;
lastChange = "2013-11-07 18:51:11 +0000";
layers = (
{
layerId = "940E2F63-624A-4C3D-A909-721782B4CF41";
name = Regular;
paths = (
{
closed = 1;
nodes = (
"56 128 LINE",
"56 96 LINE",
"88 96 LINE"
);
},
{
closed = 1;
nodes = (
"56 32 LINE",
"88 0 LINE",
"88 32 LINE"
);
},
{
closed = 1;
nodes = (
"8 48 LINE",
"104 48 LINE",
"136 80 LINE",
"40 80 LINE"
);
}
);
width = 144;
}
);
unicode = 00F7;
},
{
color = 0;
glyphname = percent;
lastChange = "2013-11-30 12:20:46 +0000";
layers = (
{
layerId = "940E2F63-624A-4C3D-A909-721782B4CF41";
name = Regular;
paths = (
{
closed = 1;
nodes = (
"104 128 LINE",
"104 80 LINE",
"40 80 LINE",
"8 48 LINE",
"8 32 LINE",
"40 0 LINE",
"40 48 LINE",
"104 48 LINE",
"136 80 LINE",
"136 96 LINE"
);
},
{
closed = 1;
nodes = (
"56 128 LINE",
"40 128 LINE",
"8 96 LINE",
"88 96 LINE"
);
},
{
closed = 1;
nodes = (
"88 0 LINE",
"104 0 LINE",
"136 32 LINE",
"56 32 LINE"
);
}
);
width = 144;
}
);
unicode = 0025;
},
{
glyphname = plus;
lastChange = "2013-06-02 16:52:04 +0100";
layers = (
{
layerId = "940E2F63-624A-4C3D-A909-721782B4CF41";
name = Regular;
paths = (
{
closed = 1;
nodes = (
"136 80 LINE",
"88 80 LINE",
"88 96 LINE",
"56 128 LINE",
"56 80 LINE",
"40 80 LINE",
"8 48 LINE",
"56 48 LINE",
"56 32 LINE",
"88 0 LINE",
"88 48 LINE",
"104 48 LINE"
);
}
);
width = 144;
}
);
unicode = 002B;
},
{
glyphname = ampersand;
lastChange = "2013-06-02 16:53:06 +0100";
layers = (
{
layerId = "940E2F63-624A-4C3D-A909-721782B4CF41";
name = Regular;
paths = (
{
closed = 1;
nodes = (
"104 128 LINE",
"88 128 LINE",
"56 96 LINE",
"56 80 LINE",
"40 80 LINE",
"8 48 LINE",
"8 32 LINE",
"40 0 LINE",
"104 0 LINE",
"136 32 LINE",
"40 32 LINE",
"40 48 LINE",
"104 48 LINE",
"136 80 LINE",
"136 96 LINE"
);
},
{
closed = 1;
nodes = (
"104 96 LINE",
"104 80 LINE",
"88 80 LINE",
"88 96 LINE"
);
}
);
width = 144;
}
);
unicode = 0026;
},
{
glyphname = degree;
lastChange = "2013-06-02 14:55:01 +0100";
layers = (
{
layerId = "940E2F63-624A-4C3D-A909-721782B4CF41";
name = Regular;
paths = (
{
closed = 1;
nodes = (
"88 80 LINE",
"88 96 LINE",
"56 128 LINE",
"40 128 LINE",
"8 96 LINE",
"8 79.9959 LINE",
"40 48 LINE",
"56 48 LINE"
);
},
{
closed = 1;
nodes = (
"104 32 LINE",
"56 32 LINE",
"88 0 LINE",
"104 0 LINE",
"136 32 LINE",
"136 48 LINE",
"104 80 LINE"
);
},
{
closed = 1;
nodes = (
"56 96 LINE",
"56 80 LINE",
"40 80 LINE",
"40 96 LINE"
);
}
);
width = 144;
}
);
unicode = 00B0;
},
